<svg aria-labelledby="simpleicons-linkedin-icon" role="img" viewBox="0 0 1024 1024" xmlns="http://www.w3.org/2000/svg"><title id="simpleicons-linkedin-icon">LinkedIn icon</title>

<path fill="#bbb" class="path1" d="M384 384h177.106v90.782h2.532c24.64-44.194 84.958-90.782 174.842-90.782 186.946 0 221.52 116.376 221.52 267.734v308.266h-184.61v-273.278c0-65.184-1.334-149.026-96.028-149.026-96.148 0-110.82 70.986-110.82 144.292v278.012h-184.542v-576z"></path>
<path fill="#bbb" class="path2" d="M64 384h192v576h-192v-576z"></path>
<path fill="#bbb" class="path3" d="M256 224c0 53.019-42.981 96-96 96s-96-42.981-96-96c0-53.019 42.981-96 96-96s96 42.981 96 96z"></path>
</svg>